<?xml version="1.0" encoding="utf-8"?>
<!-- Generator: Adobe Illustrator 18.1.0, SVG Export Plug-In . SVG Version: 6.00 Build 0)  -->
<svg version="1.1" id="Layer_1" xmlns="http://www.w3.org/2000/svg" xmlns:xlink="http://www.w3.org/1999/xlink" x="0px" y="0px"
	 viewBox="0 0 150 150" enable-background="new 0 0 150 150" xml:space="preserve">
<g>
	<path fill="#244B5B" d="M42.3,100.6c1.4-0.1,2.8-0.1,4.3-0.2c5.2-0.9,10.3-2,15.5-3.3c5.9-1.8,11.8-3.8,17.6-5.9
		c7.1-2.8,14.1-6,21-9.3c2.3-1.2,4.6-2.4,6.9-3.5l-7.3-13.2c0,0,4.5,0.3,10.4,0.8C108.2,45.7,91.1,30,70.2,30
		c-22.5,0-40.8,18.3-40.8,40.8C29.4,82.6,34.4,93.1,42.3,100.6z M91.5,57.6l7.5,18.6l-9.8,4l-36,14.6l-7.5-18.6L90.5,58L91.5,57.6z
		 M87.1,46.8l2.2,5.3L43.4,70.7l-2.2-5.3L87.1,46.8z"/>
	<polygon fill="#244B5B" points="91,76.3 93.1,71.5 89.8,70.2 88.3,69.5 86.3,74.3 89.5,75.6 	"/>
	<polygon fill="#D6DDE0" points="89.3,52.1 87.1,46.8 41.3,65.4 43.4,70.7 	"/>
	<path fill="#D6DDE0" d="M53.2,94.8l36-14.6l9.8-4l-7.5-18.6l-1,0.4L45.7,76.2L53.2,94.8z M88.3,69.5l1.5,0.6l3.2,1.4l-2,4.8
		l-1.5-0.6l-3.2-1.4L88.3,69.5z"/>
	<path fill="#8BC53F" d="M142.4,70.1c-0.1,0-0.9-0.1-2.1-0.2c-8.1-0.7-36.8-2.8-36.8-2.8l7.3,13.2c-2.3,1.2-4.6,2.4-6.9,3.5
		C97,87.1,90,90.2,82.9,93c-5.8,2.2-11.6,4.1-17.6,5.9c-5.1,1.3-10.3,2.4-15.5,3.3c-5,0.4-10,0.5-15,0.4c-2.6-0.6-5.1-1.7-7.2-3.2
		c-2.4-1.7-4.4-4-5.3-6.8c-0.4-1.2-0.6-2.4-0.7-3.7c-0.2-4.3,0.3-8.4,1.3-12.5c2.3-9.8,7.4-19.1,12-28c-3.6,3.7-6.9,7.7-10.1,11.7
		c-4.7,6-9,12.3-12.8,18.9c-4.6,8.5-8.7,18-7.2,27.9c0.2,1.2,0.5,2.4,1,3.6c1.3,3.3,3.7,6.1,6.6,8.2c1,0.7,2.1,1.3,3.2,1.8
		c11.8,5.7,25.3,4,38,3.5c3.8-0.3,7.6-1.1,11.4-1.7c6.3-1.5,12.6-3.2,18.9-5l0.2-0.2c7-2.1,13.9-4.8,20.9-7.4v-0.2
		c7-2.9,14.3-6.2,21.4-9.7c0.5-0.2,0.9-0.5,1.3-0.7c2.3,2.8,3.9,6,5.7,9.1c0.9,1.4,1.8,2.8,2.8,4.1l7.6-42.3
		C143.4,70.1,142.9,70.2,142.4,70.1z"/>
</g>
</svg>
